<?xml version="1.0" encoding="utf-8"?>
<!-- Generator: Adobe Illustrator 15.1.0, SVG Export Plug-In . SVG Version: 6.00 Build 0)  -->
<!DOCTYPE svg PUBLIC "-//W3C//DTD SVG 1.1//EN" "http://www.w3.org/Graphics/SVG/1.1/DTD/svg11.dtd">
<svg version="1.1" id="Layer_1" xmlns="http://www.w3.org/2000/svg" xmlns:xlink="http://www.w3.org/1999/xlink" x="0px" y="0px"
	 width="376px" height="180px" viewBox="0 0 376 180" enable-background="new 0 0 376 180" xml:space="preserve">
<path fill="#48C412" d="M329.951,61.366c-11.722,0-22.461,4.059-30.812,10.8c-1.455-29.213-27.931-52.494-60.386-52.494
	c-21.179,0-39.8,9.918-50.599,24.922C182.648,19.195,157.427,0,127.129,0c-34.331,0-62.16,24.637-62.16,55.027
	c0,4.629,0.654,9.122,1.869,13.417c-5.171-1.708-10.719-2.648-16.5-2.648C22.536,65.796,0,87.252,0,113.717
	s15.487,39.981,43.291,39.981c3.242,0,8.917,0.558,11.988,0C66.123,167.934,82.594,180,101.903,180
	c18.927,0,42.08-7.5,52.951-21.256c0,0,16.885,2.663,41.629,2.324c24.744-0.338,37.965-1.66,37.965-1.66
	c9.005,8.424,24.313,12.289,37.634,12.289c17.434,0,34.26-7.493,43.292-20.924c4.135,1.119,7.818,0,12.321,0
	c26.6,0,44.163-14.364,47.956-42.512C379.093,82.73,356.551,61.366,329.951,61.366z"/>
</svg>
