<?xml version="1.0" encoding="utf-8"?>
<!-- Generator: Adobe Illustrator 15.1.0, SVG Export Plug-In . SVG Version: 6.00 Build 0)  -->
<!DOCTYPE svg PUBLIC "-//W3C//DTD SVG 1.1//EN" "http://www.w3.org/Graphics/SVG/1.1/DTD/svg11.dtd">
<svg version="1.1" id="Layer_1" xmlns="http://www.w3.org/2000/svg" xmlns:xlink="http://www.w3.org/1999/xlink" x="0px" y="0px"
	 width="390px" height="210px" viewBox="0.07 0.208 390 210" enable-background="new 0.07 0.208 390 210" xml:space="preserve">
<path fill="#9EE055" d="M385.826,103.076c-11.541-29.729-42.683-37.633-71.361-31.697c-3.881-13.038-12.642-24.974-23.668-33.864
	c-24.203-19.508-67.713-18.32-91.728,3.216C188.677,22.414,170.248,6.66,150.554,2.236C101.785-8.719,60.836,26.278,62.04,69.277
	c-36.894,0-61.958,22.092-61.971,52.438c-0.015,36.052,23.729,68.695,63.725,63.224c8.798,14.853,26.598,24.222,43.222,25.146
	c19.031,1.061,41.011-4.713,55-18.291c1.002-0.975,1.963-1.979,2.854-3.034h79.185c12.717,9.778,31.383,12.628,46.617,11.478
	c10.832-0.818,28.53-8.789,34.973-20.278C367.755,180.198,402.435,145.864,385.826,103.076z"/>
</svg>
