<?xml version="1.0" encoding="utf-8"?>
<!-- Generator: Adobe Illustrator 15.1.0, SVG Export Plug-In . SVG Version: 6.00 Build 0)  -->
<!DOCTYPE svg PUBLIC "-//W3C//DTD SVG 1.1//EN" "http://www.w3.org/Graphics/SVG/1.1/DTD/svg11.dtd">
<svg version="1.1" id="Layer_1" xmlns="http://www.w3.org/2000/svg" xmlns:xlink="http://www.w3.org/1999/xlink" x="0px" y="0px"
	 width="390px" height="94px" viewBox="0 0 390 94" enable-background="new 0 0 390 94" xml:space="preserve">
<path fill="#00155F" d="M385.759,46.044c-11.541-13.307-42.686-16.843-71.362-14.188c-3.881-5.836-12.641-11.181-23.667-15.157
	c-24.203-8.733-67.713-8.202-91.727,1.438c-10.396-8.201-28.823-15.25-48.521-17.229c-48.769-4.902-89.718,10.761-88.514,30.01
	C25.077,30.917,0.013,40.808,0,54.39c-0.019,16.137,23.729,30.75,63.724,28.299c8.798,6.647,26.602,10.844,43.222,11.256
	c19.031,0.478,41.015-2.107,55-8.188c1.002-0.436,1.965-0.884,2.854-1.357h79.186c12.719,4.377,31.385,5.652,46.617,5.14
	c10.831-0.367,28.53-3.937,34.972-9.077C367.687,80.563,402.365,65.194,385.759,46.044z"/>
</svg>
