<?xml version="1.0" encoding="utf-8"?>
<!-- Generator: Adobe Illustrator 15.1.0, SVG Export Plug-In . SVG Version: 6.00 Build 0)  -->
<!DOCTYPE svg PUBLIC "-//W3C//DTD SVG 1.1//EN" "http://www.w3.org/Graphics/SVG/1.1/DTD/svg11.dtd">
<svg version="1.1" id="Layer_1" xmlns="http://www.w3.org/2000/svg" xmlns:xlink="http://www.w3.org/1999/xlink" x="0px" y="0px"
	 width="78px" height="73px" viewBox="0 0 78 73" enable-background="new 0 0 78 73" xml:space="preserve">
<g>
	<path fill="#FFFFFF" d="M2.057,68.02c2.88,3.504,10.558,2.449,14.359,2.535c2.896,0.066,5.722,0.369,8.616,0.913
		c2.672,0.504,5.652,1.014,8.181-0.3c3.635-1.891,5.357-6.028,6.803-9.622c1.944-4.834,3.047-9.76,4.123-14.831
		c0.002-0.001,0.5-2.928,0.5-2.928l-0.636-0.024c-0.979-0.051-5.607,0.183-7.351,0.396c-4.174,0.478-9.973,1.678-13.399,2.738
		c-4.607,1.425-8.768,3.866-12.508,6.882c-2.871,2.311-6.294,5.035-8.428,8.064c-1.07,1.521-1.697,3.888-0.646,5.631
		C1.789,67.665,1.917,67.848,2.057,68.02z"/>
	<path fill="#FFFFFF" d="M41.997,69.192c1.742,1.505,4.346,2.289,6.418,2.814c3.021,0.766,6.443,0.936,9.35-0.389
		c4.916-2.241,2.635-8.658,0.811-12.229c-1.029-2.016-5.438-8.323-6.982-9.963c-2.215-2.348-5.359-5.038-6.687-5.686l-0.478-0.245
		l-0.177,0.722c-0.095,0.392-0.521,2.2-0.958,3.991c-0.986,4.081-1.85,8.188-2.569,12.323c-0.42,2.395-1.289,5.078,0.114,7.327
		C41.15,68.359,41.543,68.799,41.997,69.192z"/>
	<path fill="#FFFFFF" d="M19.389,0.605c4.212-1.681,10.43,2.947,13.801,4.703c2.57,1.34,5.19,2.438,7.987,3.355
		c2.583,0.846,5.439,1.841,7.023,4.208c2.275,3.411,1.783,7.864,1.316,11.713c-0.627,5.17-2.035,10.015-3.539,14.979
		c0,0.002-0.973,2.807-0.973,2.807l-0.571-0.288c-0.88-0.425-4.82-2.862-6.249-3.891c-3.424-2.432-7.928-6.28-10.416-8.861
		c-3.351-3.471-5.816-7.617-7.639-12.061c-1.4-3.412-3.085-7.446-3.493-11.131c-0.204-1.848,0.388-4.22,2.151-5.24
		C18.983,0.785,19.184,0.687,19.389,0.605z"/>
	<path fill="#FFFFFF" d="M54.944,18.844c2.25-0.483,4.91,0.088,6.975,0.627c3.021,0.787,6.098,2.291,8.006,4.85
		c3.227,4.333-1.867,8.856-5.184,11.103c-1.879,1.269-8.783,4.668-10.93,5.36c-3.07,0.99-7.121,1.828-8.594,1.755l-0.542-0.017
		l0.199-0.717c0.104-0.391,0.6-2.176,1.083-3.959c1.102-4.052,2.33-8.063,3.689-12.033c0.791-2.3,1.324-5.07,3.637-6.364
		C53.798,19.164,54.356,18.968,54.944,18.844z"/>
	<path fill="#634E42" d="M57.034,46.366c0.168-0.671-2.576-2.097-4.648-2.84c-2.076-0.745-11.382-2.751-13.223-3.16
		c-1.841-0.413-2.584,0.741-2.584,0.741s0.096,1.366,1.908,1.896c1.808,0.527,10.929,3.259,13.104,3.606
		C53.769,46.958,56.86,47.031,57.034,46.366z"/>
</g>
</svg>
