<?xml version="1.0" encoding="utf-8"?>
<!-- Generator: Adobe Illustrator 15.1.0, SVG Export Plug-In . SVG Version: 6.00 Build 0)  -->
<!DOCTYPE svg PUBLIC "-//W3C//DTD SVG 1.1//EN" "http://www.w3.org/Graphics/SVG/1.1/DTD/svg11.dtd">
<svg version="1.1" id="Layer_1" xmlns="http://www.w3.org/2000/svg" xmlns:xlink="http://www.w3.org/1999/xlink" x="0px" y="0px"
	 width="78px" height="73px" viewBox="0 0 78 73" enable-background="new 0 0 78 73" xml:space="preserve">
<g>
	
		<linearGradient id="SVGID_1_" gradientUnits="userSpaceOnUse" x1="-88.4966" y1="561.2061" x2="-45.2983" y2="561.2061" gradientTransform="matrix(0.7865 -0.6176 0.6176 0.7865 -249.9206 -458.6134)">
		<stop  offset="0" style="stop-color:#1D1D1B;stop-opacity:0.2"/>
		<stop  offset="0.0896" style="stop-color:#1D1D1B;stop-opacity:0.1821"/>
		<stop  offset="1" style="stop-color:#1D1D1B;stop-opacity:0"/>
	</linearGradient>
	<path opacity="0.9" fill="url(#SVGID_1_)" d="M69.339,24.484c-1.952-0.889-4.482-1.912-6.791-1.825
		c-0.603,0.02-1.188,0.119-1.747,0.317c-5.78,2.024-8.79,7.908-11.258,13.144c0.019-3.346-0.089-6.672-0.567-10.043
		c-0.546-3.854-1.229-8.298-4.322-11.01c-2.151-1.886-5.179-2.105-7.9-2.253c-2.953-0.165-5.778-0.545-8.618-1.178
		c-3.725-0.826-10.957-3.697-14.602-0.97c-0.176,0.137-0.347,0.278-0.508,0.439c-1.442,1.446-1.397,3.902-0.72,5.64
		c1.353,3.467,4.036,6.939,6.28,9.88c2.922,3.835,6.39,7.213,10.542,9.707c3.084,1.857,8.448,4.419,12.401,5.885
		c5.438,2.056,10.342,2.756,16.121,1.941c2.241-0.316,9.654-2.487,11.729-3.416c3.667-1.652,9.482-5.245,7.039-10.084
		C74.977,27.796,72.186,25.78,69.339,24.484z"/>
	<path fill="#FFFFFF" d="M19.463,0.406c4.232-1.674,10.458,2.991,13.835,4.766c2.574,1.354,5.202,2.461,8.005,3.394
		c2.59,0.859,5.452,1.862,7.036,4.25c2.271,3.43,1.766,7.896,1.279,11.757c-0.646,5.188-2.075,10.047-3.6,15.021
		c-0.003,0.001-0.988,2.813-0.988,2.813l-0.57-0.289c-0.882-0.43-4.83-2.889-6.26-3.927c-3.429-2.449-7.935-6.329-10.423-8.927
		c-3.353-3.497-5.813-7.667-7.628-12.134c-1.394-3.427-3.071-7.482-3.469-11.18c-0.197-1.855,0.405-4.233,2.175-5.252
		C19.054,0.583,19.257,0.487,19.463,0.406z"/>
	<path fill="#FFFFFF" d="M55.085,18.828c2.261-0.477,4.929,0.108,7,0.652c3.028,0.8,6.113,2.317,8.018,4.896
		c3.224,4.358-1.902,8.88-5.24,11.125c-1.888,1.268-8.83,4.656-10.984,5.345c-3.085,0.982-7.155,1.812-8.633,1.732l-0.543-0.019
		l0.2-0.721c0.109-0.391,0.613-2.183,1.1-3.971c1.122-4.061,2.366-8.084,3.748-12.064c0.801-2.307,1.342-5.082,3.669-6.373
		C53.934,19.145,54.496,18.949,55.085,18.828z"/>
	<path fill="#634E42" d="M57.089,46.454c0.174-0.669-2.574-2.109-4.651-2.859c-2.081-0.759-11.417-2.8-13.261-3.22
		c-1.848-0.42-2.598,0.732-2.598,0.732s0.091,1.375,1.907,1.909c1.815,0.54,10.959,3.313,13.143,3.668
		C53.813,47.039,56.914,47.124,57.089,46.454z"/>
	<path opacity="0.9" fill="#B2DDF9" d="M69.339,24.484c-1.952-0.889-4.482-1.912-6.791-1.825c-0.603,0.02-1.188,0.119-1.747,0.317
		c-5.78,2.024-8.79,7.908-11.258,13.144c0.019-3.346-0.089-6.672-0.567-10.043c-0.546-3.854-1.229-8.298-4.322-11.01
		c-2.151-1.886-5.179-2.105-7.9-2.253c-2.953-0.165-5.778-0.545-8.618-1.178c-3.725-0.826-10.957-3.697-14.602-0.97
		c-0.176,0.137-0.347,0.278-0.508,0.439c-1.442,1.446-1.397,3.902-0.72,5.64c1.353,3.467,4.036,6.939,6.28,9.88
		c2.922,3.835,6.39,7.213,10.542,9.707c3.084,1.857,8.448,4.419,12.401,5.885c5.438,2.056,10.342,2.756,16.121,1.941
		c2.241-0.316,9.654-2.487,11.729-3.416c3.667-1.652,9.482-5.245,7.039-10.084C74.977,27.796,72.186,25.78,69.339,24.484z"/>
</g>
</svg>
