<?xml version="1.0" encoding="utf-8"?>
<!-- Generator: Adobe Illustrator 15.1.0, SVG Export Plug-In . SVG Version: 6.00 Build 0)  -->
<!DOCTYPE svg PUBLIC "-//W3C//DTD SVG 1.1//EN" "http://www.w3.org/Graphics/SVG/1.1/DTD/svg11.dtd">
<svg version="1.1" id="Layer_1" xmlns="http://www.w3.org/2000/svg" xmlns:xlink="http://www.w3.org/1999/xlink" x="0px" y="0px"
	 width="78px" height="73px" viewBox="0 0 78 73" enable-background="new 0 0 78 73" xml:space="preserve">
<g>
	
		<linearGradient id="SVGID_1_" gradientUnits="userSpaceOnUse" x1="-561.0645" y1="913.1006" x2="-517.9805" y2="913.1006" gradientTransform="matrix(0.3848 0.923 0.923 -0.3848 -600.2961 908.9026)">
		<stop  offset="0" style="stop-color:#1D1D1B;stop-opacity:0.2"/>
		<stop  offset="0.0896" style="stop-color:#1D1D1B;stop-opacity:0.1821"/>
		<stop  offset="1" style="stop-color:#1D1D1B;stop-opacity:0"/>
	</linearGradient>
	<path opacity="0.9" fill="url(#SVGID_1_)" d="M57.055,71.518c-2.131-0.176-4.831-0.519-6.797-1.719
		c-0.517-0.313-0.979-0.681-1.367-1.127c-4.045-4.576-3.801-11.162-3.397-16.924c-1.614,2.925-3.327,5.766-5.387,8.467
		c-2.353,3.088-5.11,6.625-9.122,7.48c-2.792,0.594-5.536-0.688-7.978-1.886c-2.646-1.296-5.293-2.338-8.071-3.173
		c-3.645-1.094-11.337-2.118-13.181-6.265c-0.089-0.205-0.167-0.413-0.227-0.631c-0.553-1.963,0.681-4.076,2.118-5.263
		c2.865-2.355,6.893-4.068,10.277-5.538c4.412-1.915,9.074-3.166,13.901-3.315c3.59-0.112,9.506,0.271,13.661,0.918
		c5.732,0.859,10.342,2.638,14.98,6.16c1.795,1.365,7.19,6.865,8.54,8.687c2.391,3.222,5.699,9.182,1.217,12.204
		C63.573,71.379,60.162,71.779,57.055,71.518z"/>
	<path opacity="0.9" fill="#B2DDF9" d="M1.919,68.189c2.867,3.517,10.559,2.485,14.362,2.587c2.898,0.075,5.727,0.392,8.62,0.943
		c2.672,0.516,5.654,1.034,8.194-0.27c3.646-1.882,5.38-6.016,6.839-9.612c1.965-4.828,3.087-9.754,4.182-14.825
		c0-0.003,0.512-2.932,0.512-2.932l-0.639-0.024c-0.977-0.056-5.61,0.162-7.359,0.369c-4.179,0.462-9.986,1.643-13.42,2.695
		c-4.621,1.409-8.791,3.841-12.548,6.844c-2.882,2.304-6.317,5.016-8.463,8.043c-1.077,1.52-1.71,3.885-0.667,5.633
		C1.65,67.839,1.777,68.018,1.919,68.189z"/>
	<path opacity="0.9" fill="#B2DDF9" d="M41.894,69.5c1.736,1.512,4.343,2.308,6.411,2.842c3.027,0.779,6.456,0.957,9.363-0.357
		c4.926-2.226,2.669-8.656,0.857-12.237c-1.028-2.02-5.419-8.349-6.961-10c-2.203-2.357-5.346-5.061-6.671-5.713l-0.479-0.246
		l-0.176,0.724c-0.094,0.393-0.528,2.198-0.975,3.99c-1.002,4.083-1.879,8.188-2.617,12.327c-0.426,2.396-1.307,5.079,0.089,7.335
		C41.047,68.661,41.439,69.105,41.894,69.5z"/>
	<path fill="#634E42" d="M57.092,46.429c-0.172,0.667-3.268,0.586-5.443,0.226c-2.181-0.356-11.298-3.12-13.107-3.657
		c-1.812-0.533-1.902-1.9-1.902-1.9s0.748-1.153,2.59-0.735c1.838,0.418,11.15,2.458,13.224,3.21
		C54.527,44.324,57.27,45.759,57.092,46.429z"/>
	<path fill="#FFFFFF" d="M57.055,71.518c-2.131-0.176-4.831-0.519-6.797-1.719c-0.517-0.313-0.979-0.681-1.367-1.127
		c-4.045-4.576-3.801-11.162-3.397-16.924c-1.614,2.925-3.327,5.766-5.387,8.467c-2.353,3.088-5.11,6.625-9.122,7.48
		c-2.792,0.594-5.536-0.688-7.978-1.886c-2.646-1.296-5.293-2.338-8.071-3.173c-3.645-1.094-11.337-2.118-13.181-6.265
		c-0.089-0.205-0.167-0.413-0.227-0.631c-0.553-1.963,0.681-4.076,2.118-5.263c2.865-2.355,6.893-4.068,10.277-5.538
		c4.412-1.915,9.074-3.166,13.901-3.315c3.59-0.112,9.506,0.271,13.661,0.918c5.732,0.859,10.342,2.638,14.98,6.16
		c1.795,1.365,7.19,6.865,8.54,8.687c2.391,3.222,5.699,9.182,1.217,12.204C63.573,71.379,60.162,71.779,57.055,71.518z"/>
</g>
</svg>
