<?xml version="1.0" encoding="utf-8"?>
<!-- Generator: Adobe Illustrator 15.1.0, SVG Export Plug-In . SVG Version: 6.00 Build 0)  -->
<!DOCTYPE svg PUBLIC "-//W3C//DTD SVG 1.1//EN" "http://www.w3.org/Graphics/SVG/1.1/DTD/svg11.dtd">
<svg version="1.1" id="Layer_1" xmlns="http://www.w3.org/2000/svg" xmlns:xlink="http://www.w3.org/1999/xlink" x="0px" y="0px"
	 width="245px" height="30.99px" viewBox="0 0 245 30.99" enable-background="new 0 0 245 30.99" xml:space="preserve">
<path fill="#FFFFFF" d="M2.251,19.185c0,0,5.978-2.332,10.296-2.664c4.318-0.334,6.643-5.999,13.951-6.332
	c7.308-0.333,13.619,2.333,13.619,2.333s4.316-5.701,12.29-5.997c6.726-0.25,10.214,2.999,10.214,2.999s7.225-4.498,16.94-4.998
	s12.456,0,12.456,0s5.232-3.998,16.94-4.498s26.157,5.747,26.157,5.747s11.46-1.499,18.934-0.75
	c7.475,0.749,14.449,3.498,14.449,3.498s4.234-1.749,7.475-1.749c3.237,0,8.221,1.25,12.455,3.249c4.981-1.5,9.216,0,10.96,1.249
	c4.484-0.75,11.211,1.749,13.452,2.749c2.99-1.42,6.976-0.5,8.472,0.5c4.15-0.5,10.463,2,13.949,2.166c3.82-0.666,7.641,0.5,8.969,1
	c1.33,0.498,0.832,1.997-0.664,2.831c-1.494,0.834-8.469,1.832-9.965,0.834c-2.16,1.33-3.654,2.164-6.81,2.164s-6.312-1.5-6.312-1.5
	s-2.49,2.666-6.81,2.666s-10.961-0.832-10.961-0.832s-14.242,3.928-21.55,3.928s-16.15,0.236-25.284-1.598
	c-8.305,2-16.275,0.334-17.438,0c-2.99,1.334-10.961,3.334-16.442,2.168c-6.477,2.498-19.598,1.33-25.743,0.166
	c-7.307,1.164-15.112,3.498-19.597,1.998c-6.478,0.666-14.947-1.166-17.438-2.332c-4.318,0.168-11.127-1.166-12.622-2
	c-2.658,0.5-11.293-1.83-12.954-3.33c-3.156,1.332-13.951,1.5-17.106,0.5c-3.321,0.166-7.639-1.334-7.639-1.334
	c-2.491,0.834-5.979-0.332-7.142-0.664c-1.495,0-2.159-1-1.495-1.834C0.922,18.685,2.251,19.185,2.251,19.185z"/>
</svg>
