<?xml version="1.0" encoding="utf-8"?>
<!-- Generator: Adobe Illustrator 15.1.0, SVG Export Plug-In . SVG Version: 6.00 Build 0)  -->
<!DOCTYPE svg PUBLIC "-//W3C//DTD SVG 1.1//EN" "http://www.w3.org/Graphics/SVG/1.1/DTD/svg11.dtd">
<svg version="1.1" id="Layer_1" xmlns="http://www.w3.org/2000/svg" xmlns:xlink="http://www.w3.org/1999/xlink" x="0px" y="0px"
	 width="356px" height="58px" viewBox="0 0 356 58" enable-background="new 0 0 356 58" xml:space="preserve">
<path fill="#B2DDF9" d="M72.459,18.112c0,0,10.708,1.222,13.041,1.888c2.167-1.167,6.834-1.943,8.167-1.888s5.5,0.943,5.5,0.943
	c1.333-1.055,10.667-1.471,10.667-1.471S99,17.75,97.667,15.417c-2.833,0.667-5.959,0.391-7.293,0.391
	c-2.667,1-6.874-0.642-8.04-1.142c-2.167,0.667-3.833-1-4.167-1.333s-2.167-0.25-1.75-1.5s3.167-2.25,5.25-1.917
	c1.25-1.167,3.167-2.834,5-2.667c1.329-1.971,4.869-3.302,4.869-3.302l0.832-0.294c9.954-3.49,27.871-0.831,27.871-0.831
	s6.139-2.161,14.268-0.998c8.13,1.164,13.937,3.158,13.937,3.158c11.116-5.983,16.921-4.986,24.389-4.82
	c7.465,0.166,21.233,5.152,21.233,5.152s19.412-1.828,31.357-1.163c11.942,0.665,19.41,1.329,19.41,1.329s4.478-2.658,11.113-2.326
	c6.638,0.332,10.286,3.988,10.286,3.988s3.484-0.167,8.46,0.665c4.978,0.831,10.451,2.159,10.451,2.159s6.636-2.325,11.78-1.993
	c5.143,0.333,14.601,3.821,14.601,3.821s2.82-1.828,8.958-1.828s9.456,1.828,9.456,1.828s3.816-2.327,8.627-2.327
	c4.812,0,9.124,2.659,9.124,2.659s2.82-0.333,5.309,0.166c2.489,0.499,4.646,2.992,2.82,4.487c-1.825,1.496-8.958,1.164-8.958,1.164
	s-3.15,2.161-7.133,2.161s-7.135-2.327-7.135-2.327s-2.156,0.665-6.638,0.831c-4.479,0.166-8.791,0.166-8.791,0.166
	s-2.818,0.997-10.285,0.997c-7.466,0-10.12-2.493-10.12-2.493s-5.786,2.269-8.825,2.194c-3.037-0.075-8.139-2.069-8.139-2.069
	s-4.381,1.325-7.105,1.325c-2.724,0-7.121,0.379-7.121,0.379s-3.441,1.413-7.549,1.413c5.56,1.579,6.886,4.736,6.886,4.736
	s2.985-0.166,7.299-0.166s6.637,2.493,6.637,2.493s2.654-1.164,6.802-0.333c4.148,0.831,11.446,4.819,11.446,4.819
	s3.153-0.997,5.311-1.164c2.156-0.165,7.797,0.832,7.797,0.832s4.646-0.332,8.627,0.332c3.981,0.664,6.635,3.322,6.635,3.322
	s3.153-0.33,5.311,0.334c2.155,0.664,1.16,2.325-0.332,2.989c-1.493,0.664-10.451,2.328-15.43,1.331
	c-4.978-0.998-4.978-0.998-4.978-0.998s-1.991,2.492-6.802,2.824c-4.812,0.333-18.249-1.661-18.249-1.661s-4.905,1.945-10.334,1.972
	c-5.427,0.023-10.549-2.61-10.549-2.61s-6.492,2.635-10.473,2.968c-3.982,0.331-11.115-0.666-11.115-0.666s-1.493,3.658-4.48,4.156
	c4.979,0.83,8.296,3.988,8.296,3.988s0.828,1.662-3.15,2.16c-3.982,0.497-11.946-0.166-11.946-0.166s-5.475,2.824-12.939,2.99
	c-7.468,0.166-10.477-0.398-10.477-0.398s-6.116,3.224-12.088,3.224c-5.973,0-12.941-4.652-12.941-4.652s-2.819,0.832-5.309,0.832
	c-2.487,0-3.65-0.499-3.65-0.499s-1.659,2.823-6.47,2.823s-13.937-2.657-13.937-2.657s-5.304,4.323-12.769,4.323
	s-17.752-2.161-17.752-2.161s-2.489,0.001-8.462,0.001c-5.972,0-13.769-3.157-13.769-3.157s-9.292,1.828-12.111,1.828
	s-8.958-0.83-8.958-0.83s-4.313,0.664-7.3,0.664s-6.969-4.486-6.969-4.486s-7.632,2.16-16.426,2.16
	c-8.791,0-16.092-6.314-16.092-6.314s-3.109-0.374-5.102-1.371c-1.197-0.602-7.177-6.605-7.177-6.605s-3.149,0-6.469,0
	c-3.316,0-8.626-2.658-8.626-2.658s-2.986-0.498-4.146-1.33c-1.165-0.838-0.888-1.469-0.161-2.03
	c0.727-0.563,6.208-3.819,13.155-2.952c0.294-0.788,4.493-7.486,16.532-7.486c4.813,0,6.472,1.33,6.472,1.33s3.815-4.82,13.77-4.82
	c8.543,0,9.208,0.914,10.453,1.662c1.203-0.499,5.307-1.496,7.63-1.496S72.459,18.112,72.459,18.112z"/>
</svg>
